#!OML:ASF H:\Not Pregnant\Project 1\Capture day 1\Session 1\non-pregnant.ASF
:FULLY-SPECIFIED
:DEGREES
501
root -4.79128 16.3981 -3.63572 -164.805 22.9941 -175.432
lowerback -6.24154 -0.61965 5.21359
upperback 1.01135 -1.20988 4.40758
thorax 4.54447 -0.427338 1.54149
lowerneck 24.4306 -10.5528 -33.5401
upperneck 17.5089 -22.167 29.6049
head 9.33747 -12.5737 16.1468
rclavicle -3.4191e-014 -9.54166e-015
rhumerus -20.7268 6.27215 -86.5293
rradius 28.0113
rwrist 16.4808
rhand -15.0372 -5.00434
rfingers 7.12502
rthumb 11.1289 -34.6892
lclavicle -3.4191e-014 -9.54166e-015
lhumerus -24.5004 -20.8335 98.8807
lradius 49.9167
lwrist 45.7331
lhand -15.6608 -17.0184
lfingers 7.12502
lthumb 10.5274 12.6979
rfemur -16.409 10.4615 30.6397
rtibia 28.5792
rfoot -20.65 17.8497
rtoes -4.50471
lfemur -45.3853 -5.11346 -6.63792
ltibia 31.7723
lfoot -8.12271 2.11869
ltoes -34.6056
502
root -4.75844 16.3932 -3.73681 -164.652 23.5448 -175.283
lowerback -6.26545 -0.545055 5.1043
upperback 1.03162 -1.10994 4.34549
thorax 4.58105 -0.382404 1.54733
lowerneck 24.5289 -10.5519 -33.5548
upperneck 17.4634 -22.2255 29.7726
head 9.35948 -12.6208 16.2365
rclavicle -3.61788e-014 1.59028e-014
rhumerus -21.2526 7.88385 -87.5047
rradius 28.5077
rwrist 16.2772
rhand -14.7515 -4.8075
rfingers 7.12502
rthumb 11.4044 -34.4774
lclavicle -3.61788e-014 1.59028e-014
lhumerus -24.8353 -20.7766 99.0623
lradius 50.8173
lwrist 44.7055
lhand -14.0676 -16.9461
lfingers 7.12502
lthumb 12.0639 12.6861
rfemur -15.8419 10.7588 30.7014
rtibia 28.1825
rfoot -20.5846 18.1336
rtoes -4.2742
lfemur -45.5361 -5.87602 -5.82787
ltibia 30.1756
lfoot -7.70628 1.53581
ltoes -35.1991
503
root -4.72481 16.3872 -3.83856 -164.493 24.0848 -175.131
lowerback -6.29436 -0.480094 4.98856
upperback 1.04147 -1.02179 4.28712
thorax 4.60944 -0.343634 1.55952
lowerneck 24.6133 -10.5437 -33.5883
upperneck 17.4445 -22.2753 29.9204
head 9.39017 -12.6638 16.3222
rclavicle -1.82882e-014 -7.15625e-015
rhumerus -21.7982 9.46994 -88.495
rradius 28.9666
rwrist 16.0951
rhand -14.4551 -4.59182
rfingers 7.12502
rthumb 11.6902 -34.2457
lclavicle -1.82882e-014 -7.15625e-015
lhumerus -25.1728 -20.6244 99.2358
lradius 51.6313
lwrist 43.54
lhand -12.4598 -16.8901
lfingers 7.12502
lthumb 13.6139 12.6448
rfemur -15.2825 11.0366 30.7651
rtibia 27.7936
rfoot -20.508 18.4248
rtoes -4.00496
lfemur -45.7139 -6.63216 -5.00463
ltibia 28.6613
lfoot -7.53256 0.865926
ltoes -35.7466
504
root -4.69049 16.38 -3.93973 -164.311 24.5958 -174.978
lowerback -6.33155 -0.430027 4.8621
upperback 1.03093 -0.951626 4.23762
thorax 4.62117 -0.31431 1.58509
lowerneck 24.6881 -10.527 -33.6453
upperneck 17.45 -22.3164 30.0448
head 9.42803 -12.7032 16.4029
rclavicle 2.98177e-015 3.10104e-014
rhumerus -22.3638 11.0623 -89.4992
rradius 29.3927
rwrist 15.879
rhand -14.108 -4.40088
rfingers 7.12502
rthumb 12.025 -34.0354
lclavicle 2.98177e-015 3.10104e-014
lhumerus -25.5103 -20.3889 99.4054
lradius 52.3557
lwrist 42.3118
lhand -10.8612 -16.8573
lfingers 7.12502
lthumb 15.1542 12.5678
rfemur -14.7544 11.2801 30.832
rtibia 27.4171
rfoot -20.4291 18.7139
rtoes -3.72704
lfemur -45.9579 -7.32942 -4.20742
ltibia 27.2589
lfoot -7.5694 0.0446281
ltoes -36.1061
505
root -4.65537 16.3716 -4.04175 -164.118 25.108 -174.816
lowerback -6.38013 -0.366262 4.75532
upperback 1.01357 -0.86484 4.17538
thorax 4.63165 -0.276259 1.5881
lowerneck 24.7646 -10.5193 -33.6759
upperneck 17.4606 -22.3608 30.1529
head 9.46227 -12.7414 16.47
rclavicle 2.28602e-014 1.51076e-014
rhumerus -22.9371 12.6295 -90.5173
rradius 29.7866
rwrist 15.5905
rhand -13.6512 -4.17502
rfingers 7.12502
rthumb 12.4654 -33.7833
lclavicle 2.28602e-014 1.51076e-014
lhumerus -25.8427 -20.1516 99.5668
lradius 52.9848
lwrist 41.098
lhand -9.29818 -16.8444
lfingers 7.12502
lthumb 16.6594 12.4607
rfemur -14.2367 11.5093 30.9042
rtibia 27.0582
rfoot -20.3586 19.0103
rtoes -3.45281
lfemur -46.2369 -7.89694 -3.48799
ltibia 25.9954
lfoot -7.76012 -0.946697
ltoes -36.1747
506
root -4.61973 16.3618 -4.14431 -163.902 25.6052 -174.641
lowerback -6.45424 -0.297767 4.67175
upperback 0.990016 -0.77464 4.10547
thorax 4.64961 -0.23569 1.57058
lowerneck 24.8322 -10.5185 -33.6905
upperneck 17.4771 -22.4075 30.2496
head 9.49687 -12.7782 16.5275
rclavicle 1.09332e-013 -7.95139e-016
rhumerus -23.4978 14.2084 -91.5341
rradius 30.1487
rwrist 15.2246
rhand -12.9322 -3.87407
rfingers 7.12502
rthumb 13.1586 -33.4389
lclavicle 1.09332e-013 -7.95139e-016
lhumerus -26.1543 -19.9067 99.7121
lradius 53.514
lwrist 39.938
lhand -7.78975 -16.828
lfingers 7.12502
lthumb 18.1111 12.3488
rfemur -13.7448 11.7177 30.9848
rtibia 26.7214
rfoot -20.2997 19.3082
rtoes -3.18168
lfemur -46.5624 -8.28056 -2.89767
ltibia 24.8896
lfoot -8.04514 -2.13688
ltoes -36.0426
507
root -4.58343 16.3499 -4.2484 -163.665 26.1099 -174.441
lowerback -6.54384 -0.223929 4.61231
upperback 0.960278 -0.679376 4.03206
thorax 4.66956 -0.191777 1.53662
lowerneck 24.8916 -10.5203 -33.6917
upperneck 17.5029 -22.4511 30.3291
head 9.52996 -12.8112 16.5738
rclavicle 3.95581e-014 1.03368e-014
rhumerus -24.0454 15.8423 -92.5334
rradius 30.4818
rwrist 14.7951
rhand -11.7784 -3.36623
rfingers 7.12502
rthumb 14.2705 -32.8559
lclavicle 3.95581e-014 1.03368e-014
lhumerus -26.4552 -19.6162 99.8383
lradius 53.952
lwrist 38.8466
lhand -6.3483 -16.7789
lfingers 7.12502
lthumb 19.4975 12.2635
rfemur -13.2649 11.9285 31.0828
rtibia 26.4094
rfoot -20.2554 19.6067
rtoes -2.92895
lfemur -46.8974 -8.4369 -2.46852
ltibia 23.9499
lfoot -8.37331 -3.47964
ltoes -35.8238
